<?xml version="1.0" encoding="UTF-8" standalone="no"?>
<!-- Created with Inkscape (http://www.inkscape.org/) -->

<svg
   width="64"
   height="64"
   viewBox="0 0 16.933333 16.933333"
   version="1.1"
   id="svg5"
   inkscape:version="1.2.1 (9c6d41e410, 2022-07-14, custom)"
   sodipodi:docname="drop_object.svg"
   inkscape:export-filename="../../src/assets/images/drop_object_disabled.png"
   inkscape:export-xdpi="96"
   inkscape:export-ydpi="96"
   xmlns:inkscape="http://www.inkscape.org/namespaces/inkscape"
   xmlns:sodipodi="http://sodipodi.sourceforge.net/DTD/sodipodi-0.dtd"
   xmlns="http://www.w3.org/2000/svg"
   xmlns:svg="http://www.w3.org/2000/svg">
  <sodipodi:namedview
     id="namedview7"
     pagecolor="#505050"
     bordercolor="#ffffff"
     borderopacity="1"
     inkscape:showpageshadow="0"
     inkscape:pageopacity="0"
     inkscape:pagecheckerboard="1"
     inkscape:deskcolor="#505050"
     inkscape:document-units="mm"
     showgrid="false"
     inkscape:zoom="14.638496"
     inkscape:cx="7.9926244"
     inkscape:cy="30.740863"
     inkscape:window-width="3824"
     inkscape:window-height="2120"
     inkscape:window-x="6"
     inkscape:window-y="30"
     inkscape:window-maximized="1"
     inkscape:current-layer="g889"
     showguides="false" />
  <defs
     id="defs2">
    <inkscape:perspective
       sodipodi:type="inkscape:persp3d"
       inkscape:vp_x="-11.021153 : 7.7926524 : 1"
       inkscape:vp_y="0 : 1000 : 0"
       inkscape:vp_z="17.290366 : 9.0984166 : 1"
       inkscape:persp3d-origin="3.85471 : 5.1065579 : 1"
       id="perspective915" />
  </defs>
  <g
     inkscape:label="Base"
     inkscape:groupmode="layer"
     id="layer1"
     style="display:none"
     sodipodi:insensitive="true">
    <rect
       style="fill:#9b1717;fill-opacity:1;stroke:#000000;stroke-width:0.25;stroke-linejoin:round;stroke-dasharray:none;stroke-opacity:1;paint-order:fill markers stroke"
       id="rect8011"
       width="16.3927"
       height="16.392698"
       x="0.27031708"
       y="0.27031708"
       ry="1.4983484"
       rx="1.4541171" />
    <g
       sodipodi:type="inkscape:box3d"
       id="g917"
       style="fill:#1e0606;fill-opacity:1;stroke:#000000;stroke-width:0.25;stroke-linecap:round;stroke-linejoin:round;stroke-dasharray:none;stroke-opacity:1;paint-order:fill markers stroke"
       inkscape:perspectiveID="#perspective915"
       inkscape:corner0="-0.2346 : 0.001073595 : 0 : 1"
       inkscape:corner7="-0.35126293 : -0.0011028003 : 0.18614002 : 1">
      <path
         sodipodi:type="inkscape:box3dside"
         id="path929"
         style="fill:#1e0606;fill-opacity:1;fill-rule:evenodd;stroke:#000000;stroke-width:0.25;stroke-linecap:round;stroke-linejoin:round;stroke-dasharray:none;stroke-opacity:1;paint-order:fill markers stroke"
         inkscape:box3dsidetype="11"
         d="m 10.1506,10.579868 2.958469,0.201108 v 2.606845 L 10.1506,12.867103 Z"
         points="13.109069,10.780976 13.109069,13.387821 10.1506,12.867103 10.1506,10.579868 " />
      <path
         sodipodi:type="inkscape:box3dside"
         id="path919"
         style="fill:#1e0606;fill-opacity:1;fill-rule:evenodd;stroke:#000000;stroke-width:0.25;stroke-linecap:round;stroke-linejoin:round;stroke-dasharray:none;stroke-opacity:1;paint-order:fill markers stroke"
         inkscape:box3dsidetype="6"
         d="m 8.4142574,11.247422 v 2.843474 L 10.1506,12.867103 v -2.287235 z"
         points="8.4142574,14.090896 10.1506,12.867103 10.1506,10.579868 8.4142574,11.247422 " />
      <path
         sodipodi:type="inkscape:box3dside"
         id="path927"
         style="fill:#1e0606;fill-opacity:1;fill-rule:evenodd;stroke:#000000;stroke-width:0.25;stroke-linecap:round;stroke-linejoin:round;stroke-dasharray:none;stroke-opacity:1;paint-order:fill markers stroke"
         inkscape:box3dsidetype="13"
         d="M 8.4142574,14.090896 11.909344,14.981098 13.109069,13.387821 10.1506,12.867103 Z"
         points="11.909344,14.981098 13.109069,13.387821 10.1506,12.867103 8.4142574,14.090896 " />
      <path
         sodipodi:type="inkscape:box3dside"
         id="path921"
         style="fill:#1e0606;fill-opacity:1;fill-rule:evenodd;stroke:#000000;stroke-width:0.25;stroke-linecap:round;stroke-linejoin:round;stroke-dasharray:none;stroke-opacity:1;paint-order:fill markers stroke"
         inkscape:box3dsidetype="5"
         d="M 8.4142574,11.247422 11.909344,11.626279 13.109069,10.780976 10.1506,10.579868 Z"
         points="11.909344,11.626279 13.109069,10.780976 10.1506,10.579868 8.4142574,11.247422 " />
      <path
         sodipodi:type="inkscape:box3dside"
         id="path925"
         style="fill:#1e0606;fill-opacity:1;fill-rule:evenodd;stroke:#000000;stroke-width:0.25;stroke-linecap:round;stroke-linejoin:round;stroke-dasharray:none;stroke-opacity:1;paint-order:fill markers stroke"
         inkscape:box3dsidetype="14"
         d="m 11.909344,11.626279 v 3.354819 l 1.199725,-1.593277 v -2.606845 z"
         points="11.909344,14.981098 13.109069,13.387821 13.109069,10.780976 11.909344,11.626279 " />
      <path
         sodipodi:type="inkscape:box3dside"
         id="path923"
         style="fill:#1e0606;fill-opacity:1;fill-rule:evenodd;stroke:#000000;stroke-width:0.25;stroke-linecap:round;stroke-linejoin:round;stroke-dasharray:none;stroke-opacity:1;paint-order:fill markers stroke"
         inkscape:box3dsidetype="3"
         d="m 8.4142574,11.247422 3.4950866,0.378857 v 3.354819 L 8.4142574,14.090896 Z"
         points="11.909344,11.626279 11.909344,14.981098 8.4142574,14.090896 8.4142574,11.247422 " />
    </g>
    <path
       style="fill:#1e0606;fill-opacity:1;stroke:#000000;stroke-width:0.264583px;stroke-linecap:round;stroke-linejoin:round;stroke-opacity:1"
       d="m 7.8421828,10.9239 c -0.049634,-0.115575 -1.302413,-1.4040551 -1.302413,-1.4040551 0,0 0.00301,-2.2356228 0.4090288,-2.6451195 C 7.354814,6.4652287 9.806126,7.1410902 9.806126,7.1410902 l 4.761573,2.6194209 0.283426,-0.8000195 -2.526951,-2.4741371 1.986359,1.3946075 0.11475,-0.7558154 -2.831625,-2.906039 c 0,0 -2.4663572,0.3002433 -4.0188786,-0.4271811 C 6.5679835,3.3201984 5.3613622,1.2966764 5.3613622,1.2966764 c 0,0 -3.6238225,1.9014784 -3.4088676,1.9014784 0.2149549,0 3.0963328,2.2162302 3.0963328,2.2162302 l -0.3727121,4.707483 2.5937021,1.115562 z"
       id="path8067"
       sodipodi:nodetypes="cczcccccccscscccc" />
  </g>
  <g
     inkscape:groupmode="layer"
     id="layer2"
     inkscape:label="hover"
     style="display:none"
     sodipodi:insensitive="true">
    <rect
       style="fill:#9b2e17;fill-opacity:1;stroke:#37281c;stroke-width:0.25;stroke-linejoin:round;stroke-dasharray:none;stroke-opacity:1;paint-order:fill markers stroke"
       id="rect9187"
       width="16.3927"
       height="16.392698"
       x="0.27031708"
       y="0.27031708"
       ry="1.4983484"
       rx="1.4541171" />
    <g
       sodipodi:type="inkscape:box3d"
       id="g9201"
       style="fill:#2c0808;fill-opacity:1;stroke:#37281c;stroke-width:0.25;stroke-linecap:round;stroke-linejoin:round;stroke-dasharray:none;stroke-opacity:1;paint-order:fill markers stroke"
       inkscape:perspectiveID="#perspective915"
       inkscape:corner0="-0.2346 : 0.001073595 : 0 : 1"
       inkscape:corner7="-0.35126293 : -0.0011028003 : 0.18614002 : 1">
      <path
         sodipodi:type="inkscape:box3dside"
         id="path9189"
         style="fill:#2c0808;fill-opacity:1;fill-rule:evenodd;stroke:#37281c;stroke-width:0.25;stroke-linecap:round;stroke-linejoin:round;stroke-dasharray:none;stroke-opacity:1;paint-order:fill markers stroke"
         inkscape:box3dsidetype="11"
         d="m 10.1506,10.579868 2.958469,0.201108 v 2.606845 L 10.1506,12.867103 Z"
         points="13.109069,10.780976 13.109069,13.387821 10.1506,12.867103 10.1506,10.579868 " />
      <path
         sodipodi:type="inkscape:box3dside"
         id="path9191"
         style="fill:#2c0808;fill-opacity:1;fill-rule:evenodd;stroke:#37281c;stroke-width:0.25;stroke-linecap:round;stroke-linejoin:round;stroke-dasharray:none;stroke-opacity:1;paint-order:fill markers stroke"
         inkscape:box3dsidetype="6"
         d="m 8.4142574,11.247422 v 2.843474 L 10.1506,12.867103 v -2.287235 z"
         points="8.4142574,14.090896 10.1506,12.867103 10.1506,10.579868 8.4142574,11.247422 " />
      <path
         sodipodi:type="inkscape:box3dside"
         id="path9193"
         style="fill:#2c0808;fill-opacity:1;fill-rule:evenodd;stroke:#37281c;stroke-width:0.25;stroke-linecap:round;stroke-linejoin:round;stroke-dasharray:none;stroke-opacity:1;paint-order:fill markers stroke"
         inkscape:box3dsidetype="13"
         d="M 8.4142574,14.090896 11.909344,14.981098 13.109069,13.387821 10.1506,12.867103 Z"
         points="11.909344,14.981098 13.109069,13.387821 10.1506,12.867103 8.4142574,14.090896 " />
      <path
         sodipodi:type="inkscape:box3dside"
         id="path9195"
         style="fill:#2c0808;fill-opacity:1;fill-rule:evenodd;stroke:#37281c;stroke-width:0.25;stroke-linecap:round;stroke-linejoin:round;stroke-dasharray:none;stroke-opacity:1;paint-order:fill markers stroke"
         inkscape:box3dsidetype="5"
         d="M 8.4142574,11.247422 11.909344,11.626279 13.109069,10.780976 10.1506,10.579868 Z"
         points="11.909344,11.626279 13.109069,10.780976 10.1506,10.579868 8.4142574,11.247422 " />
      <path
         sodipodi:type="inkscape:box3dside"
         id="path9197"
         style="fill:#2c0808;fill-opacity:1;fill-rule:evenodd;stroke:#37281c;stroke-width:0.25;stroke-linecap:round;stroke-linejoin:round;stroke-dasharray:none;stroke-opacity:1;paint-order:fill markers stroke"
         inkscape:box3dsidetype="14"
         d="m 11.909344,11.626279 v 3.354819 l 1.199725,-1.593277 v -2.606845 z"
         points="11.909344,14.981098 13.109069,13.387821 13.109069,10.780976 11.909344,11.626279 " />
      <path
         sodipodi:type="inkscape:box3dside"
         id="path9199"
         style="fill:#2c0808;fill-opacity:1;fill-rule:evenodd;stroke:#37281c;stroke-width:0.25;stroke-linecap:round;stroke-linejoin:round;stroke-dasharray:none;stroke-opacity:1;paint-order:fill markers stroke"
         inkscape:box3dsidetype="3"
         d="m 8.4142574,11.247422 3.4950866,0.378857 v 3.354819 L 8.4142574,14.090896 Z"
         points="11.909344,11.626279 11.909344,14.981098 8.4142574,14.090896 8.4142574,11.247422 " />
    </g>
    <path
       style="fill:#340909;fill-opacity:1;stroke:#37281c;stroke-width:0.264583px;stroke-linecap:round;stroke-linejoin:round;stroke-opacity:1"
       d="m 7.8421828,10.9239 c -0.049634,-0.115575 -1.302413,-1.4040551 -1.302413,-1.4040551 0,0 0.00301,-2.2356228 0.4090288,-2.6451195 C 7.354814,6.4652287 9.806126,7.1410902 9.806126,7.1410902 l 4.761573,2.6194209 0.283426,-0.8000195 -2.526951,-2.4741371 1.986359,1.3946075 0.11475,-0.7558154 -2.831625,-2.906039 c 0,0 -2.4663572,0.3002433 -4.0188786,-0.4271811 C 6.5679835,3.3201984 5.3613622,1.2966764 5.3613622,1.2966764 c 0,0 -3.6238225,1.9014784 -3.4088676,1.9014784 0.2149549,0 3.0963328,2.2162302 3.0963328,2.2162302 l -0.3727121,4.707483 2.5937021,1.115562 z"
       id="path9203"
       sodipodi:nodetypes="cczcccccccscscccc" />
  </g>
  <g
     inkscape:groupmode="layer"
     id="g9232"
     inkscape:label="Press"
     style="display:none"
     sodipodi:insensitive="true">
    <rect
       style="fill:#220606;fill-opacity:1;stroke:#690707;stroke-width:0.25;stroke-linejoin:round;stroke-dasharray:none;stroke-opacity:1;paint-order:fill markers stroke"
       id="rect9214"
       width="16.3927"
       height="16.392698"
       x="0.27031708"
       y="0.27031708"
       ry="1.4983484"
       rx="1.4541171" />
    <g
       sodipodi:type="inkscape:box3d"
       id="g9228"
       style="fill:#110303;fill-opacity:1;stroke:#000000;stroke-width:0.25;stroke-linecap:round;stroke-linejoin:round;stroke-dasharray:none;stroke-opacity:1;paint-order:fill markers stroke"
       inkscape:perspectiveID="#perspective915"
       inkscape:corner0="-0.2346 : 0.001073595 : 0 : 1"
       inkscape:corner7="-0.35126293 : -0.0011028003 : 0.18614002 : 1">
      <path
         sodipodi:type="inkscape:box3dside"
         id="path9216"
         style="fill:#110303;fill-opacity:1;fill-rule:evenodd;stroke:#000000;stroke-width:0.25;stroke-linecap:round;stroke-linejoin:round;stroke-dasharray:none;stroke-opacity:1;paint-order:fill markers stroke"
         inkscape:box3dsidetype="11"
         d="m 10.1506,10.579868 2.958469,0.201108 v 2.606845 L 10.1506,12.867103 Z"
         points="13.109069,10.780976 13.109069,13.387821 10.1506,12.867103 10.1506,10.579868 " />
      <path
         sodipodi:type="inkscape:box3dside"
         id="path9218"
         style="fill:#110303;fill-opacity:1;fill-rule:evenodd;stroke:#000000;stroke-width:0.25;stroke-linecap:round;stroke-linejoin:round;stroke-dasharray:none;stroke-opacity:1;paint-order:fill markers stroke"
         inkscape:box3dsidetype="6"
         d="m 8.4142574,11.247422 v 2.843474 L 10.1506,12.867103 v -2.287235 z"
         points="8.4142574,14.090896 10.1506,12.867103 10.1506,10.579868 8.4142574,11.247422 " />
      <path
         sodipodi:type="inkscape:box3dside"
         id="path9220"
         style="fill:#110303;fill-opacity:1;fill-rule:evenodd;stroke:#000000;stroke-width:0.25;stroke-linecap:round;stroke-linejoin:round;stroke-dasharray:none;stroke-opacity:1;paint-order:fill markers stroke"
         inkscape:box3dsidetype="13"
         d="M 8.4142574,14.090896 11.909344,14.981098 13.109069,13.387821 10.1506,12.867103 Z"
         points="11.909344,14.981098 13.109069,13.387821 10.1506,12.867103 8.4142574,14.090896 " />
      <path
         sodipodi:type="inkscape:box3dside"
         id="path9222"
         style="fill:#110303;fill-opacity:1;fill-rule:evenodd;stroke:#000000;stroke-width:0.25;stroke-linecap:round;stroke-linejoin:round;stroke-dasharray:none;stroke-opacity:1;paint-order:fill markers stroke"
         inkscape:box3dsidetype="5"
         d="M 8.4142574,11.247422 11.909344,11.626279 13.109069,10.780976 10.1506,10.579868 Z"
         points="11.909344,11.626279 13.109069,10.780976 10.1506,10.579868 8.4142574,11.247422 " />
      <path
         sodipodi:type="inkscape:box3dside"
         id="path9224"
         style="fill:#110303;fill-opacity:1;fill-rule:evenodd;stroke:#000000;stroke-width:0.25;stroke-linecap:round;stroke-linejoin:round;stroke-dasharray:none;stroke-opacity:1;paint-order:fill markers stroke"
         inkscape:box3dsidetype="14"
         d="m 11.909344,11.626279 v 3.354819 l 1.199725,-1.593277 v -2.606845 z"
         points="11.909344,14.981098 13.109069,13.387821 13.109069,10.780976 11.909344,11.626279 " />
      <path
         sodipodi:type="inkscape:box3dside"
         id="path9226"
         style="fill:#110303;fill-opacity:1;fill-rule:evenodd;stroke:#000000;stroke-width:0.25;stroke-linecap:round;stroke-linejoin:round;stroke-dasharray:none;stroke-opacity:1;paint-order:fill markers stroke"
         inkscape:box3dsidetype="3"
         d="m 8.4142574,11.247422 3.4950866,0.378857 v 3.354819 L 8.4142574,14.090896 Z"
         points="11.909344,11.626279 11.909344,14.981098 8.4142574,14.090896 8.4142574,11.247422 " />
    </g>
    <path
       style="fill:#110303;fill-opacity:1;stroke:#000000;stroke-width:0.264583px;stroke-linecap:round;stroke-linejoin:round;stroke-opacity:1"
       d="m 7.8421828,10.9239 c -0.049634,-0.115575 -1.302413,-1.4040551 -1.302413,-1.4040551 0,0 0.00301,-2.2356228 0.4090288,-2.6451195 C 7.354814,6.4652287 9.806126,7.1410902 9.806126,7.1410902 l 4.761573,2.6194209 0.283426,-0.8000195 -2.526951,-2.4741371 1.986359,1.3946075 0.11475,-0.7558154 -2.831625,-2.906039 c 0,0 -2.4663572,0.3002433 -4.0188786,-0.4271811 C 6.5679835,3.3201984 5.3613622,1.2966764 5.3613622,1.2966764 c 0,0 -3.6238225,1.9014784 -3.4088676,1.9014784 0.2149549,0 3.0963328,2.2162302 3.0963328,2.2162302 l -0.3727121,4.707483 2.5937021,1.115562 z"
       id="path9230"
       sodipodi:nodetypes="cczcccccccscscccc" />
  </g>
  <g
     inkscape:groupmode="layer"
     id="g889"
     inkscape:label="Disabled"
     style="display:inline">
    <rect
       style="fill:#282525;fill-opacity:1;stroke:#100a0a;stroke-width:0.25;stroke-linejoin:round;stroke-dasharray:none;stroke-opacity:1;paint-order:fill markers stroke"
       id="rect871"
       width="16.3927"
       height="16.392698"
       x="0.27031708"
       y="0.27031708"
       ry="1.4983484"
       rx="1.4541171" />
    <g
       sodipodi:type="inkscape:box3d"
       id="g885"
       style="fill:#474343;fill-opacity:1;stroke:#000000;stroke-width:0.25;stroke-linecap:round;stroke-linejoin:round;stroke-dasharray:none;stroke-opacity:1;paint-order:fill markers stroke"
       inkscape:perspectiveID="#perspective915"
       inkscape:corner0="-0.2346 : 0.001073595 : 0 : 1"
       inkscape:corner7="-0.35126293 : -0.0011028003 : 0.18614002 : 1">
      <path
         sodipodi:type="inkscape:box3dside"
         id="path873"
         style="fill:#474343;fill-opacity:1;fill-rule:evenodd;stroke:#000000;stroke-width:0.25;stroke-linecap:round;stroke-linejoin:round;stroke-dasharray:none;stroke-opacity:1;paint-order:fill markers stroke"
         inkscape:box3dsidetype="11"
         d="m 10.1506,10.579868 2.958469,0.201108 v 2.606845 L 10.1506,12.867103 Z"
         points="13.109069,10.780976 13.109069,13.387821 10.1506,12.867103 10.1506,10.579868 " />
      <path
         sodipodi:type="inkscape:box3dside"
         id="path875"
         style="fill:#474343;fill-opacity:1;fill-rule:evenodd;stroke:#000000;stroke-width:0.25;stroke-linecap:round;stroke-linejoin:round;stroke-dasharray:none;stroke-opacity:1;paint-order:fill markers stroke"
         inkscape:box3dsidetype="6"
         d="m 8.4142574,11.247422 v 2.843474 L 10.1506,12.867103 v -2.287235 z"
         points="8.4142574,14.090896 10.1506,12.867103 10.1506,10.579868 8.4142574,11.247422 " />
      <path
         sodipodi:type="inkscape:box3dside"
         id="path877"
         style="fill:#474343;fill-opacity:1;fill-rule:evenodd;stroke:#000000;stroke-width:0.25;stroke-linecap:round;stroke-linejoin:round;stroke-dasharray:none;stroke-opacity:1;paint-order:fill markers stroke"
         inkscape:box3dsidetype="13"
         d="M 8.4142574,14.090896 11.909344,14.981098 13.109069,13.387821 10.1506,12.867103 Z"
         points="11.909344,14.981098 13.109069,13.387821 10.1506,12.867103 8.4142574,14.090896 " />
      <path
         sodipodi:type="inkscape:box3dside"
         id="path879"
         style="fill:#474343;fill-opacity:1;fill-rule:evenodd;stroke:#000000;stroke-width:0.25;stroke-linecap:round;stroke-linejoin:round;stroke-dasharray:none;stroke-opacity:1;paint-order:fill markers stroke"
         inkscape:box3dsidetype="5"
         d="M 8.4142574,11.247422 11.909344,11.626279 13.109069,10.780976 10.1506,10.579868 Z"
         points="11.909344,11.626279 13.109069,10.780976 10.1506,10.579868 8.4142574,11.247422 " />
      <path
         sodipodi:type="inkscape:box3dside"
         id="path881"
         style="fill:#474343;fill-opacity:1;fill-rule:evenodd;stroke:#000000;stroke-width:0.25;stroke-linecap:round;stroke-linejoin:round;stroke-dasharray:none;stroke-opacity:1;paint-order:fill markers stroke"
         inkscape:box3dsidetype="14"
         d="m 11.909344,11.626279 v 3.354819 l 1.199725,-1.593277 v -2.606845 z"
         points="11.909344,14.981098 13.109069,13.387821 13.109069,10.780976 11.909344,11.626279 " />
      <path
         sodipodi:type="inkscape:box3dside"
         id="path883"
         style="fill:#474343;fill-opacity:1;fill-rule:evenodd;stroke:#000000;stroke-width:0.25;stroke-linecap:round;stroke-linejoin:round;stroke-dasharray:none;stroke-opacity:1;paint-order:fill markers stroke"
         inkscape:box3dsidetype="3"
         d="m 8.4142574,11.247422 3.4950866,0.378857 v 3.354819 L 8.4142574,14.090896 Z"
         points="11.909344,11.626279 11.909344,14.981098 8.4142574,14.090896 8.4142574,11.247422 " />
    </g>
    <path
       style="fill:#474343;fill-opacity:1;stroke:#000000;stroke-width:0.264583px;stroke-linecap:round;stroke-linejoin:round;stroke-opacity:1"
       d="m 7.8421828,10.9239 c -0.049634,-0.115575 -1.302413,-1.4040551 -1.302413,-1.4040551 0,0 0.00301,-2.2356228 0.4090288,-2.6451195 C 7.354814,6.4652287 9.806126,7.1410902 9.806126,7.1410902 l 4.761573,2.6194209 0.283426,-0.8000195 -2.526951,-2.4741371 1.986359,1.3946075 0.11475,-0.7558154 -2.831625,-2.906039 c 0,0 -2.4663572,0.3002433 -4.0188786,-0.4271811 C 6.5679835,3.3201984 5.3613622,1.2966764 5.3613622,1.2966764 c 0,0 -3.6238225,1.9014784 -3.4088676,1.9014784 0.2149549,0 3.0963328,2.2162302 3.0963328,2.2162302 l -0.3727121,4.707483 2.5937021,1.115562 z"
       id="path887"
       sodipodi:nodetypes="cczcccccccscscccc" />
  </g>
</svg>
