<?xml version="1.0" encoding="UTF-8" standalone="no"?>
<!-- Created with Inkscape (http://www.inkscape.org/) -->

<svg
   width="64"
   height="64"
   viewBox="0 0 16.933333 16.933333"
   version="1.1"
   id="svg5"
   inkscape:version="1.2.1 (9c6d41e410, 2022-07-14, custom)"
   sodipodi:docname="reset.svg"
   inkscape:export-filename="../../src/assets/images/reset_hover.png"
   inkscape:export-xdpi="96"
   inkscape:export-ydpi="96"
   xmlns:inkscape="http://www.inkscape.org/namespaces/inkscape"
   xmlns:sodipodi="http://sodipodi.sourceforge.net/DTD/sodipodi-0.dtd"
   xmlns="http://www.w3.org/2000/svg"
   xmlns:svg="http://www.w3.org/2000/svg">
  <sodipodi:namedview
     id="namedview7"
     pagecolor="#505050"
     bordercolor="#ffffff"
     borderopacity="1"
     inkscape:showpageshadow="0"
     inkscape:pageopacity="0"
     inkscape:pagecheckerboard="1"
     inkscape:deskcolor="#505050"
     inkscape:document-units="mm"
     showgrid="false"
     inkscape:zoom="14.638496"
     inkscape:cx="32.790254"
     inkscape:cy="25.070882"
     inkscape:window-width="3824"
     inkscape:window-height="2120"
     inkscape:window-x="6"
     inkscape:window-y="30"
     inkscape:window-maximized="1"
     inkscape:current-layer="g1372" />
  <defs
     id="defs2" />
  <g
     inkscape:label="Base"
     inkscape:groupmode="layer"
     id="layer1"
     sodipodi:insensitive="true"
     style="display:none">
    <ellipse
       style="fill:#8a723c;fill-opacity:1;stroke:#221b12;stroke-width:2.12997;stroke-linejoin:round;stroke-dasharray:none;stroke-opacity:1;paint-order:markers stroke fill"
       id="path234"
       cx="8.4666691"
       cy="8.4666681"
       rx="7.4016838"
       ry="7.4016829" />
    <path
       id="path902"
       style="fill:#e8dec4;fill-opacity:1;stroke:#221b12;stroke-width:0.264583px;stroke-linecap:butt;stroke-linejoin:miter;stroke-opacity:1"
       d="M 9.0535673,1.5102414 7.1425729,2.8031858 9.0535673,4.5803383 V 3.7922727 c 0.5249629,0.035044 1.8341327,-0.156922 3.0360377,1.5801687 1.19627,1.7289479 0.887753,3.2262563 0.887753,3.2262563 l 1.765784,0.024288 c 0,0 0.305187,-1.8273498 -1.618458,-4.434968 C 11.677991,2.2269381 9.6098807,2.2664847 9.0535673,2.2378456 Z"
       sodipodi:nodetypes="ccccsccscc" />
    <path
       id="path902-5"
       style="fill:#e8dec4;fill-opacity:1;stroke:#221b12;stroke-width:0.264583px;stroke-linecap:butt;stroke-linejoin:miter;stroke-opacity:1"
       d="m 7.4759553,15.40557 1.910994,-1.292945 -1.910994,-1.777152 v 0.788065 C 6.9509923,13.088494 5.6418223,13.28046 4.4399172,11.543369 3.2436472,9.8144208 3.5521642,8.3171124 3.5521642,8.3171124 l -1.765784,-0.024288 c 0,0 -0.305187,1.8273496 1.618458,4.4349686 1.4466931,1.96108 3.5148031,1.921533 4.0711171,1.950172 z"
       sodipodi:nodetypes="ccccsccscc" />
    <path
       id="path902-7"
       style="fill:#e8dec4;fill-opacity:1;stroke:#221b12;stroke-width:0.264583px;stroke-linecap:butt;stroke-linejoin:miter;stroke-opacity:1"
       d="m 25.752075,-5.4939972 -1.910994,1.2929444 1.910994,1.7771525 v -0.7880656 c 0.524963,0.035044 1.834132,-0.156922 3.036037,1.5801687 1.19627,1.72894791 0.887753,3.2262563 0.887753,3.2262563 l 1.765784,0.024288 c 0,0 0.305187,-1.82734979 -1.618458,-4.434968 -1.446693,-1.9610796 -3.514802,-1.921533 -4.071116,-1.9501721 z"
       sodipodi:nodetypes="ccccsccscc" />
    <path
       style="fill:none;stroke:#000000;stroke-width:0.264583px;stroke-linecap:butt;stroke-linejoin:miter;stroke-opacity:1"
       d="m 24.258956,1.6469903 c 0,0 3.10922,0.020814 4.896985,2.3934941 1.94999,2.5879807 1.432137,5.0547971 1.432137,5.0547971 l -1.765425,-0.024251 c 0,0 0.102117,-2.6140916 -0.70198,-3.8461195 C 26.818108,3.2291361 24.24588,3.1998784 24.24588,3.1998784 Z"
       id="path902-3"
       sodipodi:nodetypes="csccscc" />
    <path
       style="fill:none;stroke:#000000;stroke-width:0.264583px;stroke-linecap:butt;stroke-linejoin:miter;stroke-opacity:1"
       d="M 24.237791,0.91701445 V 4.0009852 l -1.785039,-1.785039 z"
       id="path1000-6" />
  </g>
  <g
     inkscape:label="Hover"
     inkscape:groupmode="layer"
     id="g1372">
    <ellipse
       style="fill:#574a26;fill-opacity:1;stroke:#4a3928;stroke-width:2.12997;stroke-linejoin:round;stroke-dasharray:none;stroke-opacity:1;paint-order:markers stroke fill"
       id="ellipse1360"
       cx="8.4666691"
       cy="8.4666681"
       rx="7.4016838"
       ry="7.4016829" />
    <path
       id="path1362"
       style="fill:#e8dec4;fill-opacity:1;stroke:#221b12;stroke-width:0.264583px;stroke-linecap:butt;stroke-linejoin:miter;stroke-opacity:1"
       d="M 9.0535673,1.5102414 7.1425729,2.8031858 9.0535673,4.5803383 V 3.7922727 c 0.5249629,0.035044 1.8341327,-0.156922 3.0360377,1.5801687 1.19627,1.7289479 0.887753,3.2262563 0.887753,3.2262563 l 1.765784,0.024288 c 0,0 0.305187,-1.8273498 -1.618458,-4.434968 C 11.677991,2.2269381 9.6098807,2.2664847 9.0535673,2.2378456 Z"
       sodipodi:nodetypes="ccccsccscc" />
    <path
       id="path1364"
       style="fill:#e8dec4;fill-opacity:1;stroke:#221b12;stroke-width:0.264583px;stroke-linecap:butt;stroke-linejoin:miter;stroke-opacity:1"
       d="m 7.4759553,15.40557 1.910994,-1.292945 -1.910994,-1.777152 v 0.788065 C 6.9509923,13.088494 5.6418223,13.28046 4.4399172,11.543369 3.2436472,9.8144208 3.5521642,8.3171124 3.5521642,8.3171124 l -1.765784,-0.024288 c 0,0 -0.305187,1.8273496 1.618458,4.4349686 1.4466931,1.96108 3.5148031,1.921533 4.0711171,1.950172 z"
       sodipodi:nodetypes="ccccsccscc" />
    <path
       id="path1366"
       style="fill:#e8dec4;fill-opacity:1;stroke:#221b12;stroke-width:0.264583px;stroke-linecap:butt;stroke-linejoin:miter;stroke-opacity:1"
       d="m 25.752075,-5.4939972 -1.910994,1.2929444 1.910994,1.7771525 v -0.7880656 c 0.524963,0.035044 1.834132,-0.156922 3.036037,1.5801687 1.19627,1.72894791 0.887753,3.2262563 0.887753,3.2262563 l 1.765784,0.024288 c 0,0 0.305187,-1.82734979 -1.618458,-4.434968 -1.446693,-1.9610796 -3.514802,-1.921533 -4.071116,-1.9501721 z"
       sodipodi:nodetypes="ccccsccscc" />
    <path
       style="fill:none;stroke:#000000;stroke-width:0.264583px;stroke-linecap:butt;stroke-linejoin:miter;stroke-opacity:1"
       d="m 24.258956,1.6469903 c 0,0 3.10922,0.020814 4.896985,2.3934941 1.94999,2.5879807 1.432137,5.0547971 1.432137,5.0547971 l -1.765425,-0.024251 c 0,0 0.102117,-2.6140916 -0.70198,-3.8461195 C 26.818108,3.2291361 24.24588,3.1998784 24.24588,3.1998784 Z"
       id="path1368"
       sodipodi:nodetypes="csccscc" />
    <path
       style="fill:none;stroke:#000000;stroke-width:0.264583px;stroke-linecap:butt;stroke-linejoin:miter;stroke-opacity:1"
       d="M 24.237791,0.91701445 V 4.0009852 l -1.785039,-1.785039 z"
       id="path1370" />
  </g>
</svg>
