<?xml version="1.0" encoding="UTF-8" standalone="no"?>
<!-- Created with Inkscape (http://www.inkscape.org/) -->

<svg
   width="128"
   height="128"
   viewBox="0 0 33.866666 33.866666"
   version="1.1"
   id="svg5"
   inkscape:version="1.2.1 (9c6d41e410, 2022-07-14)"
   sodipodi:docname="Crosshair.svg"
   inkscape:export-filename="../Images/crosshair.png"
   inkscape:export-xdpi="96"
   inkscape:export-ydpi="96"
   xmlns:inkscape="http://www.inkscape.org/namespaces/inkscape"
   xmlns:sodipodi="http://sodipodi.sourceforge.net/DTD/sodipodi-0.dtd"
   xmlns="http://www.w3.org/2000/svg"
   xmlns:svg="http://www.w3.org/2000/svg">
  <sodipodi:namedview
     id="namedview7"
     pagecolor="#505050"
     bordercolor="#ffffff"
     borderopacity="1"
     inkscape:showpageshadow="0"
     inkscape:pageopacity="0"
     inkscape:pagecheckerboard="1"
     inkscape:deskcolor="#505050"
     inkscape:document-units="mm"
     showgrid="false"
     inkscape:zoom="14.638496"
     inkscape:cx="51.303085"
     inkscape:cy="58.544266"
     inkscape:window-width="3824"
     inkscape:window-height="2112"
     inkscape:window-x="6"
     inkscape:window-y="38"
     inkscape:window-maximized="1"
     inkscape:current-layer="layer1" />
  <defs
     id="defs2" />
  <g
     inkscape:label="Layer 1"
     inkscape:groupmode="layer"
     id="layer1">
    <path
       style="fill:#c5c9cf;fill-opacity:1;stroke:#192a34;stroke-width:0.171702px;stroke-linecap:butt;stroke-linejoin:miter;stroke-opacity:1"
       d="m 21.800774,16.536223 0.0058,0.834966 c 0,0 8.638536,0.535447 11.282512,1.515771 -0.637615,-0.913961 -0.685888,-2.765501 0.02171,-3.910484 -2.645474,1.026378 -11.310037,1.559747 -11.310036,1.559747 z"
       id="path236"
       sodipodi:nodetypes="ccccc" />
    <path
       style="fill:#c5c9cf;fill-opacity:1;stroke:#192a34;stroke-width:0.171702px;stroke-linecap:butt;stroke-linejoin:miter;stroke-opacity:1"
       d="m 17.330445,21.800774 -0.834966,0.0058 c 0,0 -0.535447,8.638536 -1.515771,11.282512 0.913961,-0.637616 2.765501,-0.685888 3.910484,0.02171 C 17.863814,30.465322 17.330445,21.800759 17.330445,21.80076 Z"
       id="path3306"
       sodipodi:nodetypes="ccccc" />
    <path
       style="fill:#c5c9cf;fill-opacity:1;stroke:#192a34;stroke-width:0.171702px;stroke-linecap:butt;stroke-linejoin:miter;stroke-opacity:1"
       d="m 12.065893,17.330443 -0.0058,-0.834966 c 0,0 -8.6385363,-0.535447 -11.28251232,-1.515771 0.63761502,0.913961 0.68588802,2.765501 -0.02171,3.910484 C 3.4013447,17.863812 12.065908,17.330443 12.065907,17.330443 Z"
       id="path3308"
       sodipodi:nodetypes="ccccc" />
    <path
       style="fill:#c5c9cf;fill-opacity:1;stroke:#192a34;stroke-width:0.171702px;stroke-linecap:butt;stroke-linejoin:miter;stroke-opacity:1"
       d="m 16.536222,12.065893 0.834966,-0.0058 c 0,0 0.535447,-8.6385368 1.515771,-11.28251231 C 17.972998,1.415196 16.121458,1.4634686 14.976475,0.75586849 16.002853,3.4013426 16.536222,12.065906 16.536222,12.065905 Z"
       id="path3310"
       sodipodi:nodetypes="ccccc" />
  </g>
</svg>
